<?xml version="1.0" encoding="UTF-8"?><svg id="Layer_1" xmlns="http://www.w3.org/2000/svg" xmlns:xlink="http://www.w3.org/1999/xlink" viewBox="0 0 188.61 81.4"><defs><style>.cls-1,.cls-2{fill:#7f7d7a;}.cls-1,.cls-3{fill-rule:evenodd;}.cls-4{fill:#fff;}.cls-5,.cls-3{fill:#c3383b;}.cls-6{clip-path:url(#clippath-1);}.cls-7{fill:#29211a;}.cls-8{clip-path:url(#clippath);}.cls-9{fill:none;}.cls-10{fill:#c3383c;}</style><clipPath id="clippath"><rect class="cls-9" x="2.18" width="137.62" height="60.26"/></clipPath><clipPath id="clippath-1"><rect class="cls-9" y="4.92" width="38.4" height="34.04"/></clipPath></defs><g class="cls-8"><path class="cls-7" d="m57.28,9.76c.37,0,.72.04.93.08.25.04.39.27.39.51v4.63c0,.4-.29.61-.67.57-.31-.04-1.09-.08-1.56-.08h-.28c-1.37,0-3.1.49-4.36,1.38v13.5c0,.33-.22.54-.54.54h-5.03c-.33,0-.54-.22-.54-.54V10.84c0-.33.22-.54.54-.54h4.42c.26,0,.44.15.51.41l.44,2.27c1.51-2.06,3.65-3.21,5.6-3.21h.16Z"/><path class="cls-7" d="m70.14,9.76c4.85,0,8.63,3.01,8.63,9v2.19c0,.49-.38.88-.88.88h-11.33v.66c0,2.83,1.92,4.13,4.46,4.13h.2c1.79,0,3.78-.64,6.02-1.47.29-.11.54.07.54.39v3.77c0,.41-.15.63-.45.75-1.28.6-4.59,1.35-7.02,1.35h-.42c-5.36,0-9.63-3.16-9.63-9.6v-2.23c0-6.26,4.3-9.83,9.42-9.83h.45Zm-.38,4.46c-1.93,0-3.11,1.46-3.22,4.1h6.53c.08-2.75-.91-4.1-3.14-4.1h-.17Z"/><path class="cls-7" d="m99.74,10.3c.41,0,.59.37.4.71l-5.58,9.43,5.81,9.72c.19.33,0,.74-.4.74h-5.4c-.29,0-.52-.14-.67-.37l-2.6-4.42-.83-2.53h-.22l-.83,2.53-2.6,4.42c-.15.23-.37.37-.67.37h-5.4c-.41,0-.59-.41-.4-.74l5.81-9.72-5.59-9.43c-.18-.33,0-.71.4-.71h5.27c.29,0,.56.15.7.4l2.47,4.25.84,2.53h.22l.84-2.53,2.47-4.25c.15-.25.41-.4.7-.4h5.27Z"/><path class="cls-7" d="m121.56,10.3c.41,0,.59.37.4.71l-5.58,9.43,5.81,9.72c.19.33,0,.74-.4.74h-5.4c-.29,0-.52-.14-.67-.37l-2.6-4.42-.84-2.53h-.22l-.84,2.53-2.6,4.42c-.15.23-.37.37-.67.37h-5.4c-.41,0-.59-.41-.4-.74l5.81-9.72-5.59-9.43c-.18-.33,0-.71.4-.71h5.27c.29,0,.56.15.7.4l2.47,4.25.84,2.53h.22l.84-2.53,2.47-4.25c.15-.25.41-.4.7-.4h5.27Z"/></g><path class="cls-7" d="m49.13,35.81c1.18,0,2.52.28,3.07.53.16.06.25.19.25.41v1.94c0,.18-.14.27-.3.21-1.12-.47-1.87-.75-2.71-.75h-.06c-.81,0-1.41.31-1.41.89v.07c0,.62.55.75,1.17.96l.76.25c1.95.65,3.25,1.41,3.25,3.62v.15c0,2.28-2.09,3.51-4.56,3.51h-.16c-1.04,0-2.74-.28-3.35-.57-.16-.06-.25-.19-.25-.41v-1.94c0-.18.14-.27.3-.21,1.17.47,2.07.78,3.01.78h.13c.98,0,1.52-.35,1.52-.96v-.07c0-.62-.5-.78-1.15-.99l-.76-.25c-1.53-.51-3.25-1.24-3.25-3.53v-.12c0-2.4,2.18-3.53,4.26-3.53h.23Z"/><path class="cls-7" d="m64.91,36.1c.23,0,.39.19.31.42l-3.75,11.28c-.64,1.95-1.7,3.56-4.09,3.56h-.17c-.9,0-1.97-.28-2.18-.37-.13-.04-.21-.19-.21-.33v-2.02c0-.16.14-.27.31-.22.65.21,1.13.33,1.67.33h.05c.66,0,1-.3,1.23-.96l.16-.46h-.44c-.13,0-.24-.09-.29-.22l-3.5-10.58c-.08-.23.07-.42.31-.42h2.79c.13,0,.24.09.29.22l1.36,4.17.83,4.06h.05l.83-4.06,1.36-4.17c.04-.13.15-.22.29-.22h2.79Z"/><path class="cls-7" d="m70.56,35.81c1.18,0,2.52.28,3.07.53.16.06.25.19.25.41v1.94c0,.18-.14.27-.3.21-1.12-.47-1.87-.75-2.71-.75h-.06c-.81,0-1.41.31-1.41.89v.07c0,.62.55.75,1.17.96l.76.25c1.95.65,3.25,1.41,3.25,3.62v.15c0,2.28-2.09,3.51-4.56,3.51h-.16c-1.04,0-2.74-.28-3.35-.57-.16-.06-.25-.19-.25-.41v-1.94c0-.18.14-.27.3-.21,1.17.47,2.07.78,3.01.78h.13c.98,0,1.52-.35,1.52-.96v-.07c0-.62-.5-.78-1.15-.99l-.76-.25c-1.53-.51-3.25-1.24-3.25-3.53v-.12c0-2.4,2.18-3.53,4.26-3.53h.23Z"/><path class="cls-7" d="m79.86,33.07c.22-.06.4.07.4.31v2.72h2.51c.18,0,.3.12.3.3v1.99c0,.18-.12.3-.3.3h-2.51v5.12c0,.81.35,1.15.95,1.15h.11c.25,0,.63-.1,1.44-.35.16-.04.31.06.31.22v1.88c0,.14-.08.27-.21.33-.77.35-1.62.58-2.31.58h-.23c-2.17,0-3.41-1.22-3.41-3.2v-5.74h-1.2c-.18,0-.3-.12-.3-.3v-1.68c0-.17.13-.23.3-.3l1.2-.3v-1.98c0-.24.13-.41.35-.45l2.61-.6Z"/><path class="cls-7" d="m89.54,35.81c2.66,0,4.74,1.64,4.74,4.91v1.19c0,.27-.21.48-.48.48h-6.22v.36c0,1.54,1.05,2.25,2.45,2.25h.11c.98,0,2.08-.35,3.3-.8.16-.06.3.04.3.21v2.05c0,.22-.08.34-.25.41-.7.33-2.52.74-3.85.74h-.23c-2.94,0-5.28-1.72-5.28-5.23v-1.22c0-3.41,2.36-5.36,5.17-5.36h.25Zm-.21,2.43c-1.06,0-1.71.79-1.77,2.23h3.58c.04-1.5-.5-2.23-1.72-2.23h-.09Z"/><path class="cls-7" d="m109.41,35.81c2.07,0,3.37,1.31,3.37,3.63v7.59c0,.18-.12.3-.3.3h-2.76c-.18,0-.3-.12-.3-.3v-6.86c0-1.15-.33-1.69-1.37-1.69h-.1c-.59,0-1.29.27-1.97.71.06.27.06.75.06.97v6.87c0,.18-.12.3-.3.3h-2.76c-.18,0-.3-.12-.3-.3v-6.86c0-1.15-.33-1.69-1.37-1.69h-.1c-.58,0-1.27.26-1.9.67v7.88c0,.18-.12.3-.3.3h-2.76c-.18,0-.3-.12-.3-.3v-10.63c0-.18.12-.3.3-.3h2.43c.14,0,.24.08.28.22l.18.94c1.18-1.02,2.21-1.46,3.27-1.46h.26c1.39,0,2.43.59,2.96,1.67,1.3-1.18,2.38-1.67,3.51-1.67h.26Z"/><path class="cls-7" d="m118.87,35.81c1.18,0,2.52.28,3.07.53.16.06.25.19.25.41v1.94c0,.18-.14.27-.3.21-1.12-.47-1.87-.75-2.71-.75h-.05c-.81,0-1.41.31-1.41.89v.07c0,.62.55.75,1.17.96l.76.25c1.95.65,3.25,1.41,3.25,3.62v.15c0,2.28-2.09,3.51-4.56,3.51h-.16c-1.04,0-2.74-.28-3.35-.57-.16-.06-.25-.19-.25-.41v-1.94c0-.18.14-.27.3-.21,1.17.47,2.07.78,3.01.78h.13c.98,0,1.52-.35,1.52-.96v-.07c0-.62-.5-.78-1.15-.99l-.76-.25c-1.53-.51-3.25-1.24-3.25-3.53v-.12c0-2.4,2.18-3.53,4.26-3.53h.23Z"/><g class="cls-6"><path class="cls-4" d="m2.04,21.95C2.04,12.54,9.66,4.92,19.06,4.92s17.02,7.62,17.02,17.02-7.62,17.02-17.02,17.02S2.04,31.35,2.04,21.95"/><path class="cls-3" d="m16.92,38.83l-.18-.02c-8.3-1.13-14.7-8.29-14.7-16.89,0-4.05,1.38-7.76,3.78-10.68,0,0,14.24,2.57,14.77,6.75,0,.07,1.16,4.07-7.83,5.12,0,0-7.02.33-3.34,8.78,0,0,3.03,6.49,7.5,6.95"/><path class="cls-5" d="m19.07,38.97c-10.96-8.54-1.82-12.38-1.82-12.38,12.86-3.31,11.14-8.81,11.14-8.81-3.12-8.21-19.7-9.34-19.7-9.34,2.87-2.21,6.46-3.51,10.37-3.51,9.4,0,17.02,7.61,17.02,16.99s-7.61,17.05-17.01,17.05"/><path class="cls-2" d="m51.17,19.18h-.3c-.13-.05-.32-.09-.58-.11-.26-.02-.55-.04-.87-.04-.38,0-.8.06-1.25.17-.45.11-.89.24-1.32.4l-1.87,7.81h-3.64l2.8-11.67h3.64l-.4,1.67c.2-.15.48-.34.83-.58.35-.23.66-.42.94-.56.3-.16.64-.3,1.02-.41s.72-.17,1.04-.17c.12,0,.25,0,.4,0,.14,0,.27.02.39.03l-.83,3.45Z"/><path class="cls-1" d="m56.5,27.72c-2.21,0-3.78-.53-4.7-1.58-.92-1.05-1.15-2.55-.69-4.5.46-1.91,1.37-3.43,2.74-4.56,1.37-1.14,3.04-1.7,5.01-1.7,1.79,0,3.03.48,3.7,1.45.67.96.79,2.34.36,4.14l-.32,1.31h-8.01c-.1.54-.09,1,.02,1.36.11.36.3.65.56.87.26.22.59.37.98.46.4.09.84.14,1.33.14.42,0,.85-.05,1.29-.14.43-.09.84-.22,1.22-.38.33-.13.64-.28.93-.43.29-.16.53-.29.72-.41h.39l-.72,3.01c-.33.12-.62.23-.9.33-.27.1-.63.2-1.09.31-.42.1-.85.19-1.28.25-.43.06-.95.09-1.56.09m3.06-7.65c.16-.78.13-1.37-.12-1.78-.24-.41-.71-.61-1.41-.61s-1.32.21-1.83.64c-.5.43-.87,1.01-1.08,1.74h4.44Z"/><polygon class="cls-2" points="74.79 27.41 70.52 27.41 69.09 24.07 66 27.41 61.82 27.41 67.53 21.58 64.68 15.73 68.95 15.73 70.36 19.04 73.36 15.73 77.54 15.73 71.91 21.49 74.79 27.41"/><polygon class="cls-2" points="87.65 27.41 83.38 27.41 81.95 24.07 78.86 27.41 74.68 27.41 80.38 21.58 77.54 15.73 81.8 15.73 83.22 19.04 86.22 15.73 90.4 15.73 84.76 21.49 87.65 27.41"/><path class="cls-2" d="m98.69,27.72c-.86,0-1.65-.09-2.37-.28-.72-.19-1.3-.41-1.74-.65l.74-3.07h.3c.14.13.31.28.49.43.18.16.45.33.81.5.3.16.65.3,1.05.41.4.11.85.17,1.35.17s.98-.08,1.41-.24c.43-.16.69-.41.77-.76.06-.27.02-.47-.12-.61-.15-.14-.47-.27-.96-.39-.26-.07-.59-.14-1-.22-.41-.08-.76-.17-1.06-.28-.85-.29-1.44-.7-1.77-1.26-.33-.56-.38-1.29-.17-2.2.12-.52.36-1.01.71-1.47.35-.46.8-.87,1.35-1.23.55-.35,1.19-.63,1.93-.84.73-.21,1.53-.31,2.39-.31s1.55.08,2.2.25,1.18.36,1.6.59l-.71,2.96h-.29c-.1-.1-.27-.23-.5-.39-.23-.16-.46-.3-.69-.42-.27-.14-.59-.25-.94-.35-.36-.09-.73-.14-1.13-.14-.53,0-1,.09-1.4.27-.41.18-.65.42-.72.72-.06.26-.02.47.12.62.14.15.5.3,1.07.45.29.08.64.15,1.03.22.39.07.76.17,1.1.3.78.27,1.32.67,1.63,1.19.31.52.36,1.22.15,2.08-.13.55-.38,1.07-.76,1.56-.37.5-.84.91-1.39,1.25-.59.37-1.24.65-1.97.85-.72.2-1.56.3-2.5.3"/><polygon class="cls-2" points="119.84 15.73 110.13 31.69 106.22 31.69 109.08 27.12 107.53 15.73 111.35 15.73 112.05 23.05 116.1 15.73 119.84 15.73"/><path class="cls-2" d="m121.89,27.72c-.86,0-1.65-.09-2.37-.28-.72-.19-1.3-.41-1.74-.65l.74-3.07h.3c.14.13.31.28.49.43.18.16.45.33.8.5.3.16.65.3,1.05.41.4.11.85.17,1.35.17s.98-.08,1.42-.24c.43-.16.69-.41.77-.76.07-.27.02-.47-.12-.61-.15-.14-.47-.27-.96-.39-.26-.07-.59-.14-1-.22-.41-.08-.76-.17-1.06-.28-.85-.29-1.44-.7-1.77-1.26-.33-.56-.38-1.29-.17-2.2.12-.52.36-1.01.71-1.47.35-.46.8-.87,1.35-1.23.55-.35,1.19-.63,1.92-.84.73-.21,1.53-.31,2.39-.31s1.55.08,2.2.25c.65.16,1.18.36,1.6.59l-.71,2.96h-.29c-.1-.1-.27-.23-.5-.39-.23-.16-.46-.3-.69-.42-.27-.14-.59-.25-.94-.35-.36-.09-.73-.14-1.13-.14-.53,0-1,.09-1.4.27-.41.18-.65.42-.72.72-.06.26-.02.47.12.62.14.15.5.3,1.07.45.3.08.64.15,1.03.22.39.07.76.17,1.1.3.78.27,1.32.67,1.62,1.19.31.52.36,1.22.15,2.08-.13.55-.38,1.07-.76,1.56-.37.5-.84.91-1.39,1.25-.59.37-1.24.65-1.97.85-.72.2-1.56.3-2.5.3"/><path class="cls-2" d="m133.79,27.64c-1.49,0-2.49-.31-3.02-.92-.53-.61-.63-1.61-.3-3l1.31-5.46h-1.38l.61-2.54h1.38l.8-3.34h3.64l-.8,3.34h3.51l-.61,2.54h-3.51l-.99,4.15c-.1.41-.18.77-.25,1.07-.07.3-.08.58-.03.82.04.24.16.43.38.58.21.14.55.21,1.03.21.2,0,.46-.04.8-.13.34-.09.58-.16.72-.23h.31l-.61,2.56c-.42.1-.86.19-1.32.25-.46.06-1.01.09-1.66.09"/><path class="cls-1" d="m144.1,27.72c-2.21,0-3.77-.53-4.7-1.58-.92-1.05-1.15-2.55-.69-4.5.46-1.91,1.37-3.43,2.74-4.56,1.37-1.14,3.04-1.7,5.01-1.7,1.79,0,3.02.48,3.7,1.45.67.96.79,2.34.36,4.14l-.32,1.31h-8.01c-.09.54-.09,1,.02,1.36.11.36.29.65.56.87.26.22.59.37.99.46.39.09.84.14,1.33.14.42,0,.85-.05,1.29-.14.43-.09.84-.22,1.22-.38.33-.13.64-.28.93-.43.29-.16.53-.29.72-.41h.39l-.72,3.01c-.33.12-.62.23-.9.33-.27.1-.63.2-1.09.31-.42.1-.85.19-1.28.25-.43.06-.95.09-1.56.09m3.06-7.65c.17-.78.13-1.37-.12-1.78-.24-.41-.71-.61-1.41-.61s-1.32.21-1.83.64c-.5.43-.87,1.01-1.08,1.74h4.44Z"/><path class="cls-2" d="m164.82,27.41l1.4-5.83c.14-.58.24-1.06.32-1.46.07-.39.09-.72.04-.97-.04-.25-.16-.43-.36-.55-.19-.11-.49-.17-.88-.17-.28,0-.57.06-.87.18-.3.12-.64.29-1.01.51l-1.98,8.27h-3.64l1.4-5.83c.13-.57.24-1.05.31-1.45.07-.4.08-.72.04-.97-.04-.25-.16-.43-.35-.55-.19-.11-.48-.17-.87-.17-.3,0-.61.07-.93.21-.32.14-.64.3-.95.49l-1.98,8.27h-3.64l2.8-11.67h3.64l-.31,1.29c.72-.5,1.37-.9,1.97-1.18.6-.29,1.22-.43,1.88-.43.71,0,1.3.17,1.76.51.46.34.75.85.87,1.52.86-.65,1.64-1.15,2.34-1.5s1.37-.53,2.01-.53c.54,0,1.01.09,1.39.26.39.17.69.43.9.78.24.38.37.82.41,1.34.04.52-.04,1.19-.24,2.02l-1.82,7.6h-3.64Z"/><path class="cls-2" d="m174.63,27.72c-.86,0-1.65-.09-2.37-.28-.72-.19-1.3-.41-1.74-.65l.74-3.07h.3c.14.13.3.28.49.43.18.16.45.33.81.5.3.16.65.3,1.05.41.4.11.85.17,1.35.17s.99-.08,1.42-.24c.43-.16.69-.41.77-.76.06-.27.02-.47-.12-.61-.15-.14-.47-.27-.96-.39-.26-.07-.59-.14-1-.22-.4-.08-.76-.17-1.06-.28-.85-.29-1.44-.7-1.77-1.26-.33-.56-.38-1.29-.17-2.2.12-.52.36-1.01.71-1.47.35-.46.8-.87,1.35-1.23.55-.35,1.19-.63,1.93-.84.73-.21,1.53-.31,2.39-.31s1.55.08,2.2.25c.65.16,1.18.36,1.6.59l-.71,2.96h-.29c-.1-.1-.27-.23-.5-.39-.23-.16-.46-.3-.69-.42-.27-.14-.59-.25-.94-.35-.36-.09-.73-.14-1.13-.14-.53,0-1,.09-1.4.27-.41.18-.65.42-.72.72-.06.26-.02.47.12.62.14.15.5.3,1.07.45.29.08.64.15,1.02.22.39.07.76.17,1.1.3.78.27,1.32.67,1.63,1.19.31.52.36,1.22.15,2.08-.13.55-.38,1.07-.76,1.56-.37.5-.84.91-1.39,1.25-.59.37-1.24.65-1.97.85-.73.2-1.56.3-2.5.3"/></g><path class="cls-10" d="m88.81,78.61s.07.13.2.38c.13.26.26.43.39.54.13.1.2.2.21.3.02.13-.04.24-.16.34-.13.09-.28.15-.44.18-.41.06-.77,0-1.07-.2-.3-.19-.49-.51-.56-.96-.35-2.34-.62-4.26-.8-5.76l-.32-2.49c-.2-1.74-.37-3.04-.5-3.89-1.24,4.43-2.6,7.83-4.07,10.2-1.47,2.38-3.31,3.73-5.53,4.06-1.64.24-2.91-.08-3.82-.97-.91-.89-1.53-2.4-1.84-4.52-.42-2.84-.2-5.73.68-8.64.88-2.92,2.2-5.38,3.96-7.39,1.76-2.01,3.68-3.17,5.74-3.48.65-.1,1.12.04,1.42.41.29.38.47.79.54,1.23.07.46.08.84.04,1.12-.04.28-.12.43-.23.45-.09.01-.17-.06-.25-.22-.07-.16-.17-.45-.29-.87-.12-.4-.26-.69-.41-.86-.16-.18-.41-.24-.74-.19-1.71.26-3.35,1.36-4.91,3.3-1.56,1.94-2.75,4.29-3.57,7.02-.82,2.74-1.04,5.32-.68,7.76.23,1.54.67,2.71,1.31,3.5.64.79,1.63,1.08,2.97.88,1.45-.22,2.71-.99,3.79-2.31,1.08-1.32,1.98-2.89,2.71-4.7.73-1.81,1.56-4.19,2.48-7.14-.92.33-2.19.9-3.82,1.71l-1.03.52-.98.49c-.65.35-1.18.61-1.59.79-.41.19-.75.3-1.03.34-.19.03-.34-.04-.47-.2-.13-.16-.21-.34-.24-.55-.04-.26.3-.58,1.02-.97.72-.38,1.82-.86,3.3-1.42.58-.22,1.4-.57,2.47-1.05.18-.08.72-.32,1.62-.7.9-.38,1.54-.6,1.91-.66.04,0,.14-.02.32-.05.18-.03.31.02.41.15.09.13.16.34.21.64.03.17-.06.33-.27.5l.29,2.15c.16,1.46.37,3.04.63,4.76l.59,3.96.23,1.53c.13.63.2.94.2.94Z"/><path class="cls-10" d="m101.22,66.26c.05.33-.09,1.11-.41,2.31-.32,1.21-.91,2.37-1.76,3.49-.85,1.12-2,1.78-3.45,2-1.19.18-2.24-.05-3.15-.67-.91-.62-1.48-1.71-1.71-3.25-.22-1.45-.1-2.94.36-4.46.46-1.52,1.16-2.82,2.1-3.88.94-1.06,1.99-1.68,3.15-1.85.69-.1,1.29-.04,1.81.2.52.23.82.64.91,1.22.1.65-.18,1.34-.82,2.06-.64.72-1.52,1.41-2.62,2.05-1.1.64-2.26,1.16-3.48,1.55-.1.89-.08,1.74.04,2.56.16,1.08.54,1.88,1.14,2.4.6.52,1.37.71,2.32.57,1.43-.21,2.52-.9,3.26-2.06.74-1.16,1.31-2.42,1.71-3.79.03-.08.07-.23.13-.46.06-.23.13-.35.2-.36.13-.02.22.11.26.39Zm-3.93-5.03c-.33-.12-.7-.15-1.11-.09-.71.11-1.35.44-1.93,1-.58.56-1.04,1.2-1.38,1.92-.34.72-.54,1.34-.59,1.86.84-.22,1.71-.6,2.6-1.13.89-.53,1.62-1.08,2.19-1.64.57-.56.84-.99.79-1.29-.04-.3-.23-.51-.56-.63Z"/><path class="cls-10" d="m114.76,60.01c-.25.21-.71.41-1.41.61-1.67.55-2.6.86-2.8.93l-1.77.58c.14.97.31,1.98.5,3.03.19,1.06.37,1.98.54,2.77.24,1.07.49,1.88.76,2.42.27.55.42.86.45.93.03.19-.06.38-.27.57-.21.19-.42.3-.62.33-.11.02-.21,0-.29-.06-.08-.05-.17-.15-.24-.29-.15-.24-.33-.71-.54-1.4-.21-.69-.4-1.46-.59-2.31-.17-.75-.34-1.64-.52-2.65-.18-1.01-.34-1.99-.48-2.94-1.02.32-2.06.69-3.12,1.09-.96.35-1.53.54-1.71.57-.22.03-.44,0-.66-.1-.21-.1-.34-.26-.37-.49-.04-.24.02-.41.18-.51.16-.1.43-.18.82-.24.28-.04.68-.15,1.21-.34.52-.18.86-.3,1-.36,1.21-.43,2.03-.71,2.47-.85-.06-.39-.15-.9-.29-1.53-.17-.85-.28-1.5-.35-1.94-.11-.73-.17-1.29-.18-1.7-.01-.41.02-.78.1-1.11.09-.39.34-.62.75-.68.17-.02.28-.01.35.03.06.05.11.15.13.29.02.11.02.45,0,1-.01.55.05,1.28.18,2.17.1.69.24,1.46.4,2.31l.14.75c.82-.25,2.42-.85,4.81-1.77.14-.06.25-.21.32-.45.07-.24.16-.37.27-.38.21-.03.43.05.68.25.25.2.39.42.43.66.05.32-.05.58-.3.79Z"/><path class="cls-10" d="m145.96,65.35c-.19.19-.41.3-.68.34-.22.03-.4.05-.54.04-.13,0-.24-.07-.31-.2-.21-.25-.53-1.05-.96-2.39-.43-1.34-.88-2.89-1.35-4.65-1.26-5.38-2.02-8.11-2.28-8.19-.14.48-.33,1.37-.57,2.67-.24,1.3-.49,2.99-.75,5.06-.29,2.23-.54,3.77-.73,4.63-.2.86-.4,1.4-.61,1.62-.13.15-.29.3-.49.46-.2.15-.37.24-.52.26-.19.03-.31.02-.37-.02-.06-.04-.15-.17-.26-.4-.12-.27-.42-1.11-.92-2.53-.5-1.42-.91-2.7-1.23-3.85l-.34-1.15c-.68-2.37-1.09-3.69-1.25-3.95-.31.37-.54,1.12-.69,2.26-.15,1.14-.29,2.73-.4,4.78-.16,1.6-.26,4.18-.3,7.74.01.21-.1.41-.33.62-.24.21-.46.32-.66.36-.3.04-.51-.22-.63-.79-.11-.57-.42-1.8-.94-3.68-.52-1.88-.98-3.53-1.38-4.96-.57-2.03-1.21-3.89-1.92-5.59-.21-.54-.33-.85-.34-.92-.04-.28.06-.53.3-.74.24-.22.52-.35.84-.4.15-.02.39.53.73,1.66.34,1.13.73,2.55,1.18,4.27l.22.91c.17.6.35,1.23.54,1.89.78,2.79,1.24,4.55,1.39,5.27.05-2.21.14-4.44.28-6.69l.07-1.27c.11-2.03.34-3.59.67-4.68.33-1.08.88-1.69,1.64-1.8.24-.04.61.55,1.09,1.76.49,1.21.94,2.64,1.35,4.29.31,1.17.65,2.31,1.02,3.41.37,1.1.68,1.87.91,2.29.06-.33.19-1.06.37-2.19.18-1.13.35-2.2.5-3.21.45-3.24,1-6.17,1.66-8.77.13-.42.27-.73.42-.93s.45-.34.9-.41c.24-.04.66.98,1.26,3.06.6,2.08,1.2,4.5,1.8,7.26,1.09,3.87,1.87,5.95,2.33,6.24.31.2.49.44.54.72.02.13-.07.29-.26.48Z"/><path class="cls-10" d="m157.14,61.41c-.4,1.03-1.04,1.96-1.92,2.78-.88.83-1.96,1.33-3.22,1.52-1.25.19-2.22-.02-2.92-.62-.7-.6-1.12-1.41-1.28-2.43-.13-.89-.14-2.02,0-3.39.13-1.37.41-2.62.85-3.75.03-.08.14-.38.34-.89.2-.51.45-.92.74-1.22.3-.3.63-.48,1-.54.17-.02.33,0,.48.06.15.06.24.16.26.29,0,.04-.03.13-.11.29-.08.16-.14.27-.19.36-.52.86-.92,1.69-1.2,2.49-.38,1.03-.64,2.03-.79,3-.15.97-.14,2.01.02,3.1.22,1.47,1.22,2.07,3.01,1.8.84-.12,1.58-.48,2.22-1.07.64-.59,1.13-1.27,1.45-2.03.32-.76.44-1.43.36-2.01-.1-.65-.4-1.19-.9-1.61-.5-.42-1.16-.84-1.99-1.27-.54-.28-.93-.52-1.19-.71-.26-.19-.4-.36-.42-.51-.03-.22.1-.43.39-.61.29-.19.66-.31,1.08-.38.24-.04.4-.05.48-.03.08.02.12.06.13.14,0,.04-.02.1-.07.2-.05.09-.07.17-.07.22,0,.06.22.21.64.48.83.5,1.55,1.03,2.15,1.59.6.56.96,1.26,1.09,2.12.11.73-.04,1.6-.43,2.63Z"/><path class="cls-10" d="m168.25,51.66c-.2.25-.38.39-.55.41-.13.02-.26-.02-.4-.11-.14-.09-.3-.23-.48-.41-.16-.17-.35-.3-.59-.4-.23-.1-.46-.13-.69-.1-.54.08-1.16.9-1.86,2.46-.7,1.56-1.32,3.48-1.88,5.77.08.43.2.96.34,1.6.14.64.25,1.12.31,1.44l.25,1.1c.04.26.02.5-.07.71-.08.21-.27.34-.57.38-.32.05-.58-.34-.8-1.18-.22-.83-.46-2.06-.72-3.67-.08-.41-.18-.99-.3-1.75-.12-.76-.28-1.67-.48-2.72-.29-1.59-.49-2.73-.6-3.42-.06-.43.16-.68.68-.76.32-.05.53.06.63.32.11.26.22.77.33,1.54l.66,4.43c.34-1.51.76-2.84,1.26-3.98.5-1.14,1.01-2.03,1.55-2.67.54-.64,1.05-1,1.54-1.07.41-.06.81-.03,1.21.1.4.13.73.32,1,.58.27.25.42.51.46.77.02.17-.06.38-.26.62Z"/><path class="cls-10" d="m181.99,54.19c.05.33-.09,1.11-.41,2.31-.32,1.21-.91,2.37-1.76,3.49-.85,1.12-2,1.78-3.45,2-1.19.18-2.24-.05-3.15-.67-.91-.62-1.48-1.71-1.71-3.25-.22-1.45-.1-2.94.36-4.46.46-1.52,1.16-2.82,2.1-3.88.94-1.06,1.99-1.68,3.15-1.85.69-.1,1.29-.04,1.81.2.52.23.82.64.91,1.22.1.65-.18,1.34-.82,2.06-.64.72-1.51,1.41-2.62,2.05-1.1.64-2.26,1.16-3.48,1.55-.1.89-.08,1.74.04,2.56.16,1.08.54,1.88,1.14,2.4.6.52,1.37.71,2.32.57,1.43-.21,2.52-.9,3.26-2.06.74-1.16,1.31-2.42,1.71-3.79.03-.08.07-.23.13-.46.06-.23.13-.35.2-.36.13-.02.22.11.26.39Zm-3.93-5.03c-.33-.12-.7-.15-1.11-.09-.71.11-1.35.44-1.93,1-.58.56-1.04,1.2-1.38,1.92-.34.72-.54,1.34-.59,1.86.84-.22,1.71-.6,2.6-1.13.89-.53,1.62-1.08,2.19-1.64.57-.56.84-.99.79-1.29-.04-.3-.23-.51-.56-.63Z"/><path class="cls-10" d="m185.13,44.28c.13,2.77.4,5.53.81,8.26.09.59.22,1.19.38,1.8.17.6.26.96.27,1.07.07.45-.09.7-.46.75-.13.02-.29-.11-.49-.4-.2-.28-.38-.67-.56-1.14-.18-.48-.3-.99-.39-1.53-.22-1.49-.59-4.47-1.11-8.96-.06-.54-.04-1.06.07-1.55.11-.49.38-.77.83-.84.15-.02.26.04.33.19.07.15.14.45.2.9,0,.06.04.54.1,1.44Zm2.62,16.61c-.35.05-.66-.01-.91-.19-.26-.18-.45-.4-.58-.65-.13-.26-.21-.46-.23-.61-.03-.21.04-.41.21-.63.17-.21.35-.34.56-.37.13-.02.24.02.33.12.09.1.2.25.32.44.2.31.38.51.55.6.17.09.31.22.43.38.12.16.18.28.2.36.04.28-.24.46-.86.56Z"/></svg>